<svg xmlns="http://www.w3.org/2000/svg" width="2200" height="1900" viewBox="0 0 2200 1900">
  <defs>
    <marker id="arrow" markerWidth="12" markerHeight="12" refX="10" refY="6" orient="auto" markerUnits="strokeWidth">
      <path d="M2,2 L10,6 L2,10 Z" fill="#667085"/>
    </marker>
    <filter id="shadow" x="-8%" y="-8%" width="116%" height="125%">
      <feDropShadow dx="0" dy="3" stdDeviation="4" flood-color="#000" flood-opacity="0.12"/>
    </filter>
    <style>
      .bg { fill: #fbfcfe; }
      .line { stroke: #667085; stroke-width: 2.4; fill: none; marker-end: url(#arrow); }
      .dash { stroke: #98a2b3; stroke-width: 2.2; fill: none; stroke-dasharray: 8 7; marker-end: url(#arrow); }
      .labelBg { fill: #fbfcfe; stroke: #e4e7ec; stroke-width: 1; rx: 6; }
      .label { font: 800 16px 'Segoe UI', 'Malgun Gothic', Arial, sans-serif; fill: #344054; }
      .entity { fill: #ffffff; stroke: #98a2b3; stroke-width: 2; rx: 12; filter: url(#shadow); }
      .headBox { fill: #eaf1ff; stroke: #98a2b3; stroke-width: 2; rx: 12; }
      .headText { font: 800 23px 'Segoe UI', 'Malgun Gothic', Arial, sans-serif; fill: #101828; }
      .field { font: 500 17px 'Segoe UI', 'Malgun Gothic', Arial, sans-serif; fill: #344054; }
      .pk { font: 800 17px 'Segoe UI', 'Malgun Gothic', Arial, sans-serif; fill: #101828; }
      .note { fill: #fff8db; stroke: #eaaa08; stroke-width: 1.6; rx: 12; }
      .noteText { font: 600 17px 'Segoe UI', 'Malgun Gothic', Arial, sans-serif; fill: #7a4d00; }
      .legend { font: 500 17px 'Segoe UI', 'Malgun Gothic', Arial, sans-serif; fill: #475467; }
    </style>
  </defs>

  <rect class="bg" width="2200" height="1900"/>

  <!-- relationships: every line starts and ends at a table edge -->
  <path d="M500 190 H760" class="dash"/>
  <rect x="590" y="158" width="92" height="28" class="labelBg"/><text x="602" y="178" class="label">email 검증</text>

  <path d="M1080 190 H1430" class="line"/>
  <rect x="1210" y="158" width="86" height="28" class="labelBg"/><text x="1222" y="178" class="label">1:N 토큰</text>

  <path d="M920 340 V430" class="line"/>
  <rect x="940" y="374" width="84" height="28" class="labelBg"/><text x="952" y="394" class="label">1:N 작성</text>

  <path d="M1080 260 H1240 V510 H1430" class="line"/>
  <rect x="1248" y="478" width="84" height="28" class="labelBg"/><text x="1260" y="498" class="label">1:N 알림</text>

  <path d="M760 260 H620 V535 H500" class="line"/>
  <rect x="612" y="498" width="126" height="28" class="labelBg"/><text x="624" y="518" class="label">신고자/대상</text>

  <path d="M760 300 H650 V850 H500" class="line"/>
  <rect x="642" y="812" width="126" height="28" class="labelBg"/><text x="654" y="832" class="label">차단자/대상</text>

  <path d="M920 790 V875" class="line"/>
  <rect x="940" y="820" width="84" height="28" class="labelBg"/><text x="952" y="840" class="label">1:N 거래</text>

  <path d="M1130 610 H1285 V868 H1430" class="line"/>
  <rect x="1295" y="836" width="84" height="28" class="labelBg"/><text x="1307" y="856" class="label">1:N 댓글</text>

  <path d="M1130 720 H1230 V1228 H1430" class="line"/>
  <rect x="1240" y="1196" width="84" height="28" class="labelBg"/><text x="1252" y="1216" class="label">1:N 관심</text>

  <path d="M920 1110 V1330 H540" class="line"/>
  <rect x="754" y="1298" width="92" height="28" class="labelBg"/><text x="766" y="1318" class="label">후기 대상</text>

  <path d="M830 340 H720 V1330 H540" class="dash"/>
  <rect x="542" y="1298" width="166" height="28" class="labelBg"/><text x="554" y="1318" class="label">후기 작성/평가 대상</text>

  <path d="M1130 1010 H1245 V1390 H1430" class="line"/>
  <rect x="1255" y="1358" width="96" height="28" class="labelBg"/><text x="1267" y="1378" class="label">채팅방 생성</text>

  <path d="M760 1010 H650 V1560 H760" class="line"/>
  <rect x="662" y="1528" width="112" height="28" class="labelBg"/><text x="674" y="1548" class="label">채팅 참여자</text>

  <path d="M1740 1505 V1625 H1430" class="line"/>
  <rect x="1544" y="1593" width="112" height="28" class="labelBg"/><text x="1556" y="1613" class="label">1:N 메시지</text>

  <path d="M760 300 H610 V1125 H500" class="line"/>
  <rect x="612" y="1093" width="112" height="28" class="labelBg"/><text x="624" y="1113" class="label">1:N 냉장고</text>

  <!-- email_verifications -->
  <rect x="70" y="80" width="430" height="250" class="entity"/>
  <path d="M70 92 Q70 80 82 80 H488 Q500 80 500 92 V132 H70 Z" class="headBox"/>
  <text x="95" y="113" class="headText">email_verifications</text>
  <text x="95" y="160" class="pk">* id : BIGINT &lt;PK&gt;</text>
  <text x="95" y="188" class="field">email : VARCHAR(100)</text>
  <text x="95" y="216" class="field">code : VARCHAR(6)</text>
  <text x="95" y="244" class="field">expires_at : DATETIME</text>
  <text x="95" y="272" class="field">verified / used : BIT</text>
  <text x="95" y="300" class="field">created_at : DATETIME</text>

  <!-- users -->
  <rect x="760" y="70" width="320" height="270" class="entity"/>
  <path d="M760 82 Q760 70 772 70 H1068 Q1080 70 1080 82 V122 H760 Z" class="headBox"/>
  <text x="785" y="103" class="headText">users</text>
  <text x="785" y="150" class="pk">* id : BIGINT &lt;PK&gt;</text>
  <text x="785" y="178" class="field">name, nickname &lt;UQ&gt;</text>
  <text x="785" y="206" class="field">email &lt;UQ&gt;, password</text>
  <text x="785" y="234" class="field">phone_number &lt;UQ&gt;</text>
  <text x="785" y="262" class="field">location, latitude, longitude</text>
  <text x="785" y="290" class="field">profile_image, fcm_token</text>
  <text x="785" y="318" class="field">notification flags, created_at</text>

  <!-- refresh tokens -->
  <rect x="1430" y="80" width="440" height="215" class="entity"/>
  <path d="M1430 92 Q1430 80 1442 80 H1858 Q1870 80 1870 92 V132 H1430 Z" class="headBox"/>
  <text x="1455" y="113" class="headText">refresh_tokens</text>
  <text x="1455" y="160" class="pk">* id : BIGINT &lt;PK&gt;</text>
  <text x="1455" y="188" class="field">user_id : BIGINT &lt;FK users.id&gt;</text>
  <text x="1455" y="216" class="field">token : VARCHAR(255) &lt;UQ&gt;</text>
  <text x="1455" y="244" class="field">expires_at, revoked, created_at</text>

  <!-- reports -->
  <rect x="70" y="460" width="430" height="245" class="entity"/>
  <path d="M70 472 Q70 460 82 460 H488 Q500 460 500 472 V512 H70 Z" class="headBox"/>
  <text x="95" y="493" class="headText">reports</text>
  <text x="95" y="540" class="pk">* id : BIGINT &lt;PK&gt;</text>
  <text x="95" y="568" class="field">reporter_id : BIGINT &lt;FK users.id&gt;</text>
  <text x="95" y="596" class="field">target_user_id : BIGINT &lt;FK users.id&gt;</text>
  <text x="95" y="624" class="field">target_type / target_id</text>
  <text x="95" y="652" class="field">reason, description, status</text>
  <text x="95" y="680" class="field">created_at, reviewed_at</text>

  <!-- posts -->
  <rect x="760" y="430" width="370" height="360" class="entity"/>
  <path d="M760 442 Q760 430 772 430 H1118 Q1130 430 1130 442 V482 H760 Z" class="headBox"/>
  <text x="785" y="463" class="headText">posts</text>
  <text x="785" y="510" class="pk">* id : BIGINT &lt;PK&gt;</text>
  <text x="785" y="536" class="field">user_id : BIGINT &lt;FK users.id&gt;</text>
  <text x="785" y="562" class="field">title, content, post_type, status</text>
  <text x="785" y="588" class="field">ingredient_name, quantity, price</text>
  <text x="785" y="614" class="field">trade_location, latitude, longitude</text>
  <text x="785" y="640" class="field">distance_km, expiration_date</text>
  <text x="785" y="666" class="field">image_url, deleted</text>
  <text x="785" y="692" class="field">current_participant_count</text>
  <text x="785" y="718" class="field">target_participant_count</text>
  <text x="785" y="744" class="field">deadline_date, created_at</text>

  <!-- notifications -->
  <rect x="1430" y="420" width="470" height="265" class="entity"/>
  <path d="M1430 432 Q1430 420 1442 420 H1888 Q1900 420 1900 432 V472 H1430 Z" class="headBox"/>
  <text x="1455" y="453" class="headText">notifications</text>
  <text x="1455" y="500" class="pk">* id : BIGINT &lt;PK&gt;</text>
  <text x="1455" y="528" class="field">user_id : BIGINT &lt;FK users.id&gt;</text>
  <text x="1455" y="556" class="field">type : ENUM, title : VARCHAR(100)</text>
  <text x="1455" y="584" class="field">message : TEXT</text>
  <text x="1455" y="612" class="field">target_type : VARCHAR(50)</text>
  <text x="1455" y="640" class="field">target_id : BIGINT, is_read : BIT</text>
  <text x="1455" y="668" class="field">created_at : DATETIME</text>

  <!-- user blocks -->
  <rect x="70" y="820" width="430" height="215" class="entity"/>
  <path d="M70 832 Q70 820 82 820 H488 Q500 820 500 832 V872 H70 Z" class="headBox"/>
  <text x="95" y="853" class="headText">user_blocks</text>
  <text x="95" y="900" class="pk">* id : BIGINT &lt;PK&gt;</text>
  <text x="95" y="928" class="field">blocker_id : BIGINT &lt;FK users.id&gt;</text>
  <text x="95" y="956" class="field">blocked_user_id : BIGINT &lt;FK users.id&gt;</text>
  <text x="95" y="984" class="field">created_at : DATETIME</text>

  <!-- fridge items -->
  <rect x="70" y="1080" width="430" height="215" class="entity"/>
  <path d="M70 1092 Q70 1080 82 1080 H488 Q500 1080 500 1092 V1132 H70 Z" class="headBox"/>
  <text x="95" y="1113" class="headText">fridge_items</text>
  <text x="95" y="1160" class="pk">* id : BIGINT &lt;PK&gt;</text>
  <text x="95" y="1188" class="field">user_id : BIGINT &lt;FK users.id&gt;</text>
  <text x="95" y="1216" class="field">name, quantity, memo</text>
  <text x="95" y="1244" class="field">expiration_date : DATE</text>
  <text x="95" y="1272" class="field">created_at, updated_at</text>

  <!-- trade requests -->
  <rect x="760" y="875" width="370" height="245" class="entity"/>
  <path d="M760 887 Q760 875 772 875 H1118 Q1130 875 1130 887 V927 H760 Z" class="headBox"/>
  <text x="785" y="908" class="headText">trade_requests</text>
  <text x="785" y="955" class="pk">* id : BIGINT &lt;PK&gt;</text>
  <text x="785" y="983" class="field">post_id : BIGINT &lt;FK posts.id&gt;</text>
  <text x="785" y="1011" class="field">requester_id : BIGINT &lt;FK users.id&gt;</text>
  <text x="785" y="1039" class="field">status : ENUM</text>
  <text x="785" y="1067" class="field">created_at, responded_at</text>
  <text x="785" y="1095" class="field">completed_at : DATETIME</text>

  <!-- comments -->
  <rect x="1430" y="760" width="430" height="215" class="entity"/>
  <path d="M1430 772 Q1430 760 1442 760 H1848 Q1860 760 1860 772 V812 H1430 Z" class="headBox"/>
  <text x="1455" y="793" class="headText">comments</text>
  <text x="1455" y="840" class="pk">* id : BIGINT &lt;PK&gt;</text>
  <text x="1455" y="868" class="field">post_id : BIGINT &lt;FK posts.id&gt;</text>
  <text x="1455" y="896" class="field">user_id : BIGINT &lt;FK users.id&gt;</text>
  <text x="1455" y="924" class="field">content : TEXT</text>
  <text x="1455" y="952" class="field">created_at : DATETIME</text>

  <!-- favorites -->
  <rect x="1430" y="1120" width="430" height="215" class="entity"/>
  <path d="M1430 1132 Q1430 1120 1442 1120 H1848 Q1860 1120 1860 1132 V1172 H1430 Z" class="headBox"/>
  <text x="1455" y="1153" class="headText">favorites</text>
  <text x="1455" y="1200" class="pk">* id : BIGINT &lt;PK&gt;</text>
  <text x="1455" y="1228" class="field">post_id : BIGINT &lt;FK posts.id&gt;</text>
  <text x="1455" y="1256" class="field">user_id : BIGINT &lt;FK users.id&gt;</text>
  <text x="1455" y="1284" class="field">created_at : DATETIME</text>

  <!-- reviews -->
  <rect x="70" y="1330" width="470" height="250" class="entity"/>
  <path d="M70 1342 Q70 1330 82 1330 H528 Q540 1330 540 1342 V1382 H70 Z" class="headBox"/>
  <text x="95" y="1363" class="headText">reviews</text>
  <text x="95" y="1410" class="pk">* id : BIGINT &lt;PK&gt;</text>
  <text x="95" y="1438" class="field">trade_request_id : BIGINT &lt;FK trade_requests.id&gt;</text>
  <text x="95" y="1466" class="field">reviewer_id : BIGINT &lt;FK users.id&gt;</text>
  <text x="95" y="1494" class="field">target_user_id : BIGINT &lt;FK users.id&gt;</text>
  <text x="95" y="1522" class="field">rating : INT, content : TEXT</text>
  <text x="95" y="1550" class="field">created_at : DATETIME</text>

  <!-- chat room members -->
  <rect x="760" y="1500" width="430" height="245" class="entity"/>
  <path d="M760 1512 Q760 1500 772 1500 H1178 Q1190 1500 1190 1512 V1552 H760 Z" class="headBox"/>
  <text x="785" y="1533" class="headText">chat_room_members</text>
  <text x="785" y="1580" class="pk">* id : BIGINT &lt;PK&gt;</text>
  <text x="785" y="1608" class="field">chat_room_id : BIGINT &lt;FK chat_rooms.id&gt;</text>
  <text x="785" y="1636" class="field">user_id : BIGINT &lt;FK users.id&gt;</text>
  <text x="785" y="1664" class="field">last_read_message_id : BIGINT</text>
  <text x="785" y="1692" class="field">pinned, muted : BIT</text>
  <text x="785" y="1720" class="field">created_at : DATETIME</text>

  <!-- chat rooms -->
  <rect x="1430" y="1390" width="430" height="245" class="entity"/>
  <path d="M1430 1402 Q1430 1390 1442 1390 H1848 Q1860 1390 1860 1402 V1442 H1430 Z" class="headBox"/>
  <text x="1455" y="1423" class="headText">chat_rooms</text>
  <text x="1455" y="1470" class="pk">* id : BIGINT &lt;PK&gt;</text>
  <text x="1455" y="1498" class="field">trade_request_id : BIGINT &lt;FK&gt;</text>
  <text x="1455" y="1526" class="field">post_id : BIGINT &lt;FK posts.id&gt;</text>
  <text x="1455" y="1554" class="field">owner_id / partner_id : BIGINT</text>
  <text x="1455" y="1582" class="field">last_message, created_at</text>
  <text x="1455" y="1610" class="field">group_buy 대표 채팅방 포함</text>

  <!-- chat messages -->
  <rect x="1430" y="1690" width="430" height="165" class="entity"/>
  <path d="M1430 1702 Q1430 1690 1442 1690 H1848 Q1860 1690 1860 1702 V1742 H1430 Z" class="headBox"/>
  <text x="1455" y="1723" class="headText">chat_messages</text>
  <text x="1455" y="1770" class="pk">* id : BIGINT &lt;PK&gt;</text>
  <text x="1455" y="1798" class="field">chat_room_id : BIGINT &lt;FK chat_rooms.id&gt;</text>
  <text x="1455" y="1826" class="field">sender_id : BIGINT &lt;FK users.id&gt;, content, created_at</text>

  <!-- badge note -->
  <rect x="70" y="1780" width="680" height="70" class="note"/>
  <text x="95" y="1818" class="noteText">badges / achievements: 별도 테이블 없이 활동 데이터 기반 계산</text>

  <rect x="70" y="1600" width="650" height="54" class="note"/>
  <text x="95" y="1635" class="noteText">범례: 실선 = FK 기반 관계 / 점선 = email 또는 활동 집계 기반 논리 관계</text>
</svg>
